<svg xmlns="http://www.w3.org/2000/svg" width="429" height="96" viewBox="0 0 429 96" role="img" aria-label="Lynis GUI">
  <title>Lynis GUI</title>
  <defs>
    <linearGradient id="g" x1="0" y1="0" x2="1" y2="1">
      <stop offset="0%" stop-color="#00FFCC"/>
      <stop offset="55%" stop-color="#1FB6FF"/>
      <stop offset="100%" stop-color="#8A2BE2"/>
    </linearGradient>
    <filter id="glow" x="-30%" y="-30%" width="160%" height="160%">
      <feGaussianBlur stdDeviation="3" result="b"/>
      <feMerge><feMergeNode in="b"/><feMergeNode in="SourceGraphic"/></feMerge>
    </filter>
  </defs>
  <g fill="url(#g)" filter="url(#glow)">
    <path d="M57 0 L57 721 L138 721 L138 81 L777 81 L777 0 L57 0 Z" transform="translate(36.00,70.0) scale(0.05104,-0.05104)"/>
    <path d="M363 0 L363 0 L363 271 L32 720 L125 720 L404 368 L680 720 L775 720 L444 271 L444 0 L363 0 Z" transform="translate(83.76,70.0) scale(0.05104,-0.05104)"/>
    <path d="M56 0 L56 720 L167 720 L695 92 L695 720 L776 720 L776 0 L665 0 L137 628 L137 0 L56 0 Z" transform="translate(132.89,70.0) scale(0.05104,-0.05104)"/>
    <path d="M66 0 L66 720 L148 720 L148 0 L66 0 Z" transform="translate(183.36,70.0) scale(0.05104,-0.05104)"/>
    <path d="M171 0 Q138 0 110 16 Q83 32 67 59 Q51 87 51 120 L51 148 L132 148 L132 120 Q132 104 143 92 Q155 81 171 81 L651 81 Q667 81 678 92 Q690 104 690 120 L690 281 Q690 297 678 308 Q667 319 651 319 L171 319 Q138 319 110 335 Q83 352 67 379 Q51 406 51 439 L51 600 Q51 633 67 660 Q83 688 110 704 Q138 720 171 720 L651 720 Q684 720 711 704 Q739 688 755 660 Q771 633 771 600 L771 572 L690 572 L690 600 Q690 616 678 627 Q667 639 651 639 L171 639 Q155 639 143 627 Q132 616 132 600 L132 439 Q132 423 143 412 Q155 401 171 401 L651 401 Q684 401 711 384 Q739 368 755 341 Q771 314 771 281 L771 120 Q771 87 755 59 Q739 32 711 16 Q684 0 651 0 L171 0 Z" transform="translate(202.28,70.0) scale(0.05104,-0.05104)"/>
    <path d="M176 0 Q143 0 115 16 Q88 32 72 59 Q56 87 56 120 L56 600 Q56 633 72 660 Q88 688 115 704 Q143 720 176 720 L656 720 Q689 720 716 704 Q744 688 760 660 Q776 633 776 600 L776 571 L695 571 L695 600 Q695 616 683 627 Q672 639 656 639 L176 639 Q160 639 148 627 Q137 616 137 600 L137 120 Q137 104 148 92 Q160 81 176 81 L656 81 Q672 81 683 92 Q695 104 695 120 L695 298 L517 298 L517 380 L776 380 L776 120 Q776 87 760 59 Q744 32 716 16 Q689 0 656 0 L176 0 Z" transform="translate(281.03,70.0) scale(0.05104,-0.05104)"/>
    <path d="M174 0 Q141 0 113 16 Q86 32 70 59 Q54 87 54 120 L54 720 L135 720 L135 120 Q135 104 146 92 Q158 81 174 81 L654 81 Q670 81 681 92 Q693 104 693 120 L693 720 L774 720 L774 120 Q774 87 758 59 Q742 32 714 16 Q687 0 654 0 L174 0 L174 0 Z" transform="translate(331.39,70.0) scale(0.05104,-0.05104)"/>
    <path d="M66 0 L66 720 L148 720 L148 0 L66 0 Z" transform="translate(381.65,70.0) scale(0.05104,-0.05104)"/>
  </g>
</svg>
